<svg width="36" height="36" viewBox="0 0 36 36" fill="none" xmlns="http://www.w3.org/2000/svg">
<path d="M32.875 9.5H3.125C1.95342 9.5 1 8.54658 1 7.375V3.125C1 1.95342 1.95342 1 3.125 1H32.875C34.0466 1 35 1.95342 35 3.125V7.375C35 8.54658 34.0466 9.5 32.875 9.5ZM3.125 2.41667C2.73542 2.41667 2.41667 2.734 2.41667 3.125V7.375C2.41667 7.766 2.73542 8.08333 3.125 8.08333H32.875C33.2646 8.08333 33.5833 7.766 33.5833 7.375V3.125C33.5833 2.734 33.2646 2.41667 32.875 2.41667H3.125Z" fill="#2F2F2F"/>
<path d="M30.75 22.25C28.4068 22.25 26.5 20.3432 26.5 18C26.5 15.6568 28.4068 13.75 30.75 13.75C33.0932 13.75 35 15.6568 35 18C35 20.3432 33.0932 22.25 30.75 22.25ZM30.75 15.1667C29.1874 15.1667 27.9167 16.4374 27.9167 18C27.9167 19.5626 29.1874 20.8333 30.75 20.8333C32.3126 20.8333 33.5833 19.5626 33.5833 18C33.5833 16.4374 32.3126 15.1667 30.75 15.1667Z" fill="#2F2F2F"/>
<path d="M30.75 35C28.4068 35 26.5 33.0932 26.5 30.75C26.5 28.4068 28.4068 26.5 30.75 26.5C33.0932 26.5 35 28.4068 35 30.75C35 33.0932 33.0932 35 30.75 35ZM30.75 27.9167C29.1874 27.9167 27.9167 29.1874 27.9167 30.75C27.9167 32.3126 29.1874 33.5833 30.75 33.5833C32.3126 33.5833 33.5833 32.3126 33.5833 30.75C33.5833 29.1874 32.3126 27.9167 30.75 27.9167Z" fill="#2F2F2F"/>
<path d="M22.9583 16.5833H1.70833C1.31733 16.5833 1 16.266 1 15.875C1 15.484 1.31733 15.1667 1.70833 15.1667H22.9583C23.3493 15.1667 23.6667 15.484 23.6667 15.875C23.6667 16.266 23.3493 16.5833 22.9583 16.5833Z" fill="#2F2F2F"/>
<path d="M22.9583 20.8333H1.70833C1.31733 20.8333 1 20.516 1 20.125C1 19.734 1.31733 19.4167 1.70833 19.4167H22.9583C23.3493 19.4167 23.6667 19.734 23.6667 20.125C23.6667 20.516 23.3493 20.8333 22.9583 20.8333Z" fill="#2F2F2F"/>
<path d="M22.9583 29.3333H1.70833C1.31733 29.3333 1 29.016 1 28.625C1 28.234 1.31733 27.9167 1.70833 27.9167H22.9583C23.3493 27.9167 23.6667 28.234 23.6667 28.625C23.6667 29.016 23.3493 29.3333 22.9583 29.3333Z" fill="#2F2F2F"/>
<path d="M22.9583 33.5833H1.70833C1.31733 33.5833 1 33.266 1 32.875C1 32.484 1.31733 32.1667 1.70833 32.1667H22.9583C23.3493 32.1667 23.6667 32.484 23.6667 32.875C23.6667 33.266 23.3493 33.5833 22.9583 33.5833Z" fill="#2F2F2F"/>
</svg>
