<svg width="109" height="24" viewBox="0 0 109 24" fill="none" xmlns="http://www.w3.org/2000/svg">
<path d="M12.5 3L15.1699 9.08623L21.5 9.87539L16.82 14.426L18.0623 21L12.5 17.7262L6.93769 21L8.18 14.426L3.5 9.87539L9.83009 9.08623L12.5 3Z" fill="#FF5C35"/>
<path d="M33.5 3L36.1699 9.08623L42.5 9.87539L37.82 14.426L39.0623 21L33.5 17.7262L27.9377 21L29.18 14.426L24.5 9.87539L30.8301 9.08623L33.5 3Z" fill="#FF5C35"/>
<path d="M54.5 3L57.1699 9.08623L63.5 9.87539L58.82 14.426L60.0623 21L54.5 17.7262L48.9377 21L50.18 14.426L45.5 9.87539L51.8301 9.08623L54.5 3Z" fill="#FF5C35"/>
<path d="M75.5 3L78.1699 9.08623L84.5 9.87539L79.82 14.426L81.0623 21L75.5 17.7262L69.9377 21L71.18 14.426L66.5 9.87539L72.8301 9.08623L75.5 3Z" fill="#FF5C35"/>
<path d="M96.5 3L99.1699 9.08623L105.5 9.87539L100.82 14.426L102.062 21L96.5 17.7262L90.9377 21L92.18 14.426L87.5 9.87539L93.8301 9.08623L96.5 3Z" fill="#FF5C35"/>
</svg>
